<svg width="1440" height="456" viewBox="0 0 1440 456" fill="none" xmlns="http://www.w3.org/2000/svg">
<path d="M0 255.977L62.0862 338.47C105.146 378.8 214.598 445.261 313.936 348.469C413.274 251.678 463.477 245.645 491.182 250.478C529.402 247.645 614.754 272.576 650.403 394.965C686.053 517.354 854.854 427.129 919.777 370.967C953.825 334.971 1018.32 270.49 1032.93 257.477C1051.46 240.979 1105.12 253.106 1131.29 273.976C1150.1 288.975 1255.8 355.903 1282.28 370.967C1321.84 393.466 1384.42 433.462 1440 294.974V0H0V255.977Z" fill="url(#paint0_linear)"/>
<defs>
<linearGradient id="paint0_linear" x1="720" y1="0" x2="720" y2="456" gradientUnits="userSpaceOnUse">
<stop stop-color="#8A2387"/>
<stop offset="0.546219" stop-color="#E94057"/>
<stop offset="1" stop-color="#F27121"/>
</linearGradient>
</defs>
</svg>
